
          <svg data-logo="logo" xmlns="http://www.w3.org/2000/svg" viewBox="0 0 221 28">
            <g id="logogram" transform="translate(0, 14) rotate(0)"></g>
            <g id="logotype" transform="translate(0, 1)"><path fill="#000000" d="M22.42 25L2.48 25Q2.19 25 2.04 24.66Q1.90 24.32 1.90 24.13L1.90 24.13Q1.90 23.55 2.46 23.50L2.46 23.50Q3.28 23.41 4.11 23.10Q4.94 22.80 4.94 22.23L4.94 22.23L4.94 3.91Q4.94 3.18 4.55 2.84Q4.15 2.51 3.55 2.40Q2.96 2.29 2.34 2.25L2.34 2.25Q1.98 2.22 1.85 2.11Q1.73 2.00 1.73 1.62L1.73 1.62Q1.73 1.43 1.87 1.09Q2.02 0.75 2.31 0.75L2.31 0.75L14.01 0.75Q14.30 0.75 14.45 1.09Q14.59 1.43 14.59 1.62L14.59 1.62Q14.59 2.25 14.03 2.25L14.03 2.25Q13.06 2.25 12.32 2.39Q11.59 2.53 11.17 2.88Q10.75 3.23 10.75 3.86L10.75 3.86L10.75 21.98Q10.75 22.81 11.19 23.04Q11.64 23.27 12.27 23.27L12.27 23.27L16.95 23.27Q17.76 23.27 18.55 22.34Q19.35 21.41 20.02 20.06Q20.70 18.71 21.11 17.48L21.11 17.48Q21.21 17.17 21.70 17.04Q22.18 16.92 22.46 16.92L22.46 16.92Q22.78 16.92 23.12 17.06Q23.46 17.21 23.43 17.50L23.43 17.50L22.42 25ZM31.62 25L24.39 25Q24.11 25 23.96 24.74Q23.81 24.47 23.81 24.13L23.81 24.13Q23.81 23.74 23.93 23.63Q24.06 23.53 24.42 23.50L24.42 23.50Q24.85 23.44 25.35 23.43Q25.86 23.41 26.31 23.16Q26.76 22.92 27.04 22.18L27.04 22.18L35.24 0.37L39.24 0.37L47.36 22.18Q47.65 22.95 48.13 23.20Q48.62 23.44 49.16 23.44Q49.70 23.44 50.11 23.50L50.11 23.50Q50.47 23.53 50.59 23.63Q50.72 23.74 50.72 24.13L50.72 24.13Q50.72 24.32 50.58 24.66Q50.43 25 50.14 25L50.14 25L39.51 25Q39.22 25 39.08 24.66Q38.93 24.32 38.93 24.13L38.93 24.13Q38.93 23.56 39.49 23.50L39.49 23.50Q40.50 23.44 41.08 23.42Q41.67 23.39 41.67 23.02L41.67 23.02Q41.67 22.90 41.61 22.74L41.61 22.74L39.26 16.25L40.11 16.85L30.71 16.83L31.56 16.08L29.17 22.74Q29.12 22.86 29.12 22.97L29.12 22.97Q29.12 23.38 29.86 23.41Q30.59 23.44 31.63 23.50L31.63 23.50Q32.20 23.56 32.20 24.13L32.20 24.13Q32.20 24.32 32.05 24.66Q31.91 25 31.62 25L31.62 25ZM35.75 4.66L31.72 15.52L31.43 15.38L39.55 15.38L39.02 15.53L35.75 4.66ZM71.54 25.51L71.54 25.51Q69.44 25.51 67.96 25.02Q66.48 24.52 65.88 24.30L65.88 24.30Q65.40 24.11 65.16 23.97Q64.91 23.82 64.70 23.82L64.70 23.82Q64.48 23.82 64.33 23.96Q64.19 24.09 64.09 24.21L64.09 24.21Q63.73 24.62 63.43 24.77Q63.13 24.91 62.82 24.91L62.82 24.91Q62.40 24.91 62.13 24.68Q61.87 24.45 61.88 24.09L61.88 24.09Q61.92 23.63 61.92 23.44Q61.92 23.26 61.92 22.64L61.92 22.64Q61.92 21.05 61.79 19.60Q61.66 18.15 61.66 17.53L61.66 17.53Q61.66 16.81 61.96 16.57Q62.26 16.34 62.65 16.34L62.65 16.34Q63.47 16.34 63.68 17.05L63.68 17.05Q63.80 17.48 64.05 18.27Q64.31 19.05 64.84 19.98L64.84 19.98Q65.52 21.14 66.56 22.03Q67.61 22.93 68.91 23.44Q70.22 23.96 71.67 23.96L71.67 23.96Q72.63 23.96 73.49 23.62Q74.36 23.27 74.90 22.57Q75.45 21.87 75.42 20.81L75.42 20.81Q75.38 19.19 74.37 18.10Q73.35 17.00 71.86 16.18Q70.38 15.36 68.89 14.58L68.89 14.58Q67.76 13.98 66.58 13.29Q65.40 12.61 64.41 11.74Q63.42 10.87 62.81 9.70Q62.19 8.54 62.19 7.00L62.19 7.00Q62.19 5.48 62.82 4.24Q63.45 2.99 64.62 2.10Q65.78 1.21 67.37 0.73Q68.96 0.25 70.87 0.25L70.87 0.25Q72.43 0.25 73.38 0.48Q74.34 0.70 74.94 0.92Q75.54 1.14 76.03 1.14L76.03 1.14Q76.46 1.14 76.58 0.97Q76.70 0.80 76.94 0.65L76.94 0.65Q77.13 0.53 77.42 0.53L77.42 0.53Q77.84 0.53 78.24 0.72Q78.63 0.90 78.63 1.18L78.63 1.18Q78.65 2.07 78.75 3.19Q78.85 4.32 78.96 5.24Q79.06 6.17 79.06 6.44L79.06 6.44Q79.06 7.00 78.73 7.22Q78.41 7.43 77.98 7.43L77.98 7.43Q77.66 7.43 77.45 7.33Q77.25 7.23 77.13 7.04L77.13 7.04Q77.13 7.02 77.00 6.49Q76.87 5.96 76.52 5.18Q76.17 4.39 75.51 3.60Q74.85 2.82 73.78 2.29Q72.70 1.76 71.13 1.76L71.13 1.76Q70.10 1.76 69.15 2.04Q68.19 2.32 67.57 2.96Q66.96 3.60 66.96 4.71L66.96 4.71Q66.96 6.10 67.90 7.16Q68.84 8.22 70.27 9.06Q71.71 9.89 73.16 10.63L73.16 10.63Q74.49 11.29 75.80 12.04Q77.11 12.78 78.18 13.70Q79.25 14.63 79.90 15.80Q80.54 16.97 80.54 18.47L80.54 18.47Q80.54 20.64 79.30 22.22Q78.05 23.80 76.01 24.66Q73.96 25.51 71.54 25.51ZM100.57 25L87.84 25Q87.55 25 87.41 24.66Q87.26 24.32 87.26 24.13L87.26 24.13Q87.26 23.56 87.82 23.50L87.82 23.50Q88.63 23.44 89.44 23.32Q90.25 23.19 90.80 22.86Q91.35 22.52 91.35 21.89L91.35 21.89L91.35 2.44L87.07 2.44Q86.34 2.44 85.85 3.13Q85.36 3.81 85.06 4.77Q84.77 5.74 84.62 6.63Q84.48 7.52 84.44 7.93L84.44 7.93Q84.41 8.25 84.07 8.37Q83.74 8.49 83.47 8.49L83.47 8.49Q83.28 8.49 82.94 8.35Q82.60 8.20 82.60 7.91L82.60 7.91Q82.63 7.07 82.67 5.87Q82.71 4.66 82.78 3.49Q82.85 2.32 82.93 1.54Q83.01 0.75 83.11 0.75L83.11 0.75L105.10 0.75Q105.21 0.75 105.28 1.54Q105.36 2.32 105.43 3.49Q105.50 4.66 105.55 5.87Q105.60 7.07 105.62 7.91L105.62 7.91Q105.62 8.20 105.27 8.35Q104.93 8.49 104.74 8.49L104.74 8.49Q104.47 8.49 104.14 8.37Q103.80 8.25 103.77 7.93L103.77 7.93Q103.72 7.52 103.58 6.63Q103.44 5.74 103.15 4.77Q102.85 3.81 102.36 3.13Q101.87 2.44 101.14 2.44L101.14 2.44L97.09 2.44L97.09 21.84Q97.09 22.57 97.66 22.91Q98.23 23.24 99.04 23.34Q99.86 23.44 100.54 23.50L100.54 23.50Q100.90 23.53 101.03 23.63Q101.15 23.74 101.15 24.13L101.15 24.13Q101.15 24.32 101.01 24.66Q100.86 25 100.57 25L100.57 25ZM113.70 25L106.47 25Q106.20 25 106.04 24.74Q105.89 24.47 105.89 24.13L105.89 24.13Q105.89 23.74 106.02 23.63Q106.15 23.53 106.50 23.50L106.50 23.50Q106.93 23.44 107.44 23.43Q107.94 23.41 108.39 23.16Q108.85 22.92 109.12 22.18L109.12 22.18L117.32 0.37L121.32 0.37L129.44 22.18Q129.73 22.95 130.22 23.20Q130.70 23.44 131.24 23.44Q131.78 23.44 132.19 23.50L132.19 23.50Q132.55 23.53 132.68 23.63Q132.81 23.74 132.81 24.13L132.81 24.13Q132.81 24.32 132.66 24.66Q132.51 25 132.22 25L132.22 25L121.59 25Q121.30 25 121.16 24.66Q121.01 24.32 121.01 24.13L121.01 24.13Q121.01 23.56 121.58 23.50L121.58 23.50Q122.59 23.44 123.17 23.42Q123.75 23.39 123.75 23.02L123.75 23.02Q123.75 22.90 123.70 22.74L123.70 22.74L121.34 16.25L122.19 16.85L112.79 16.83L113.65 16.08L111.25 22.74Q111.20 22.86 111.20 22.97L111.20 22.97Q111.20 23.38 111.94 23.41Q112.67 23.44 113.72 23.50L113.72 23.50Q114.28 23.56 114.28 24.13L114.28 24.13Q114.28 24.32 114.13 24.66Q113.99 25 113.70 25L113.70 25ZM117.83 4.66L113.80 15.52L113.51 15.38L121.63 15.38L121.10 15.53L117.83 4.66ZM142.41 25L134.46 25Q134.17 25 134.03 24.66Q133.88 24.32 133.88 24.13L133.88 24.13Q133.88 23.56 134.45 23.50L134.45 23.50Q135.13 23.44 135.81 23.34Q136.50 23.24 136.97 22.91Q137.44 22.57 137.44 21.86L137.44 21.86L137.44 3.91Q137.44 3.18 136.92 2.84Q136.41 2.51 135.69 2.40Q134.98 2.29 134.34 2.25L134.34 2.25Q133.98 2.22 133.86 2.11Q133.73 2.00 133.73 1.62L133.73 1.62Q133.73 1.43 133.87 1.10Q134.02 0.77 134.31 0.75L134.31 0.75L145.25 0.75L145.25 0.83L150.97 16.76L156.44 2.25Q156.53 2.01 156.63 1.52Q156.73 1.02 156.73 0.75L156.73 0.75L166.59 0.75Q166.88 0.75 167.03 1.09Q167.17 1.43 167.17 1.62L167.17 1.62Q167.17 2.19 166.61 2.25L166.61 2.25Q165.74 2.32 164.93 2.55Q164.13 2.78 164.13 3.35L164.13 3.35L164.13 21.84Q164.13 22.57 164.56 22.90Q164.99 23.22 165.59 23.33Q166.20 23.43 166.71 23.50L166.71 23.50Q167.07 23.53 167.20 23.63Q167.33 23.74 167.33 24.13L167.33 24.13Q167.33 24.32 167.18 24.66Q167.04 25 166.75 25L166.75 25L155.72 25Q155.43 25 155.29 24.66Q155.14 24.32 155.14 24.13L155.14 24.13Q155.14 23.56 155.71 23.50L155.71 23.50Q156.25 23.44 156.87 23.33Q157.48 23.22 157.92 23.00Q158.35 22.78 158.35 22.40L158.35 22.40L158.35 3.11L157.88 3.11L149.67 25L148.70 25L139.74 3.11L139.09 3.11L139.09 21.84Q139.09 22.57 139.66 22.91Q140.22 23.24 140.99 23.34Q141.76 23.44 142.38 23.50L142.38 23.50Q142.73 23.53 142.86 23.63Q142.99 23.74 142.99 24.13L142.99 24.13Q142.99 24.32 142.85 24.66Q142.70 25 142.41 25L142.41 25ZM182.95 25L171.07 25Q170.78 25 170.63 24.66Q170.49 24.32 170.49 24.13L170.49 24.13Q170.49 23.56 171.05 23.50L171.05 23.50Q171.87 23.43 172.55 23.20Q173.22 22.97 173.22 22.40L173.22 22.40L173.22 3.91Q173.22 3.18 172.83 2.85Q172.44 2.53 171.87 2.42Q171.31 2.30 170.78 2.25L170.78 2.25Q170.42 2.22 170.29 2.11Q170.16 2.00 170.16 1.62L170.16 1.62Q170.16 1.43 170.31 1.09Q170.45 0.75 170.74 0.75L170.74 0.75L175.79 0.75Q177.67 0.75 179.43 0.66Q181.19 0.58 182.59 0.58L182.59 0.58Q185.37 0.58 187.50 1.26Q189.63 1.95 190.83 3.51Q192.04 5.07 192.04 7.74L192.04 7.74Q192.04 10.03 191.00 11.78Q189.95 13.53 187.76 14.52Q185.56 15.52 182.08 15.52L182.08 15.52L178.95 15.52L178.95 21.84Q178.95 22.57 179.67 22.91Q180.38 23.24 181.32 23.34Q182.26 23.44 182.91 23.50L182.91 23.50Q183.27 23.53 183.40 23.63Q183.53 23.74 183.53 24.13L183.53 24.13Q183.53 24.32 183.38 24.66Q183.24 25 182.95 25L182.95 25ZM178.95 2.24L178.95 13.87L180.83 13.87Q181.75 13.87 182.63 13.61Q183.51 13.34 184.21 12.70Q184.91 12.06 185.33 10.94Q185.75 9.81 185.75 8.10L185.75 8.10Q185.75 5.74 185.19 4.47Q184.64 3.19 183.54 2.71Q182.45 2.24 180.83 2.24L180.83 2.24L178.95 2.24ZM200.60 25L193.37 25Q193.10 25 192.94 24.74Q192.79 24.47 192.79 24.13L192.79 24.13Q192.79 23.74 192.92 23.63Q193.05 23.53 193.41 23.50L193.41 23.50Q193.83 23.44 194.34 23.43Q194.84 23.41 195.29 23.16Q195.75 22.92 196.02 22.18L196.02 22.18L204.22 0.37L208.22 0.37L216.34 22.18Q216.63 22.95 217.12 23.20Q217.60 23.44 218.14 23.44Q218.68 23.44 219.09 23.50L219.09 23.50Q219.45 23.53 219.58 23.63Q219.71 23.74 219.71 24.13L219.71 24.13Q219.71 24.32 219.56 24.66Q219.42 25 219.13 25L219.13 25L208.50 25Q208.21 25 208.06 24.66Q207.92 24.32 207.92 24.13L207.92 24.13Q207.92 23.56 208.48 23.50L208.48 23.50Q209.49 23.44 210.07 23.42Q210.65 23.39 210.65 23.02L210.65 23.02Q210.65 22.90 210.60 22.74L210.60 22.74L208.24 16.25L209.09 16.85L199.69 16.83L200.55 16.08L198.16 22.74Q198.11 22.86 198.11 22.97L198.11 22.97Q198.11 23.38 198.84 23.41Q199.58 23.44 200.62 23.50L200.62 23.50Q201.18 23.56 201.18 24.13L201.18 24.13Q201.18 24.32 201.04 24.66Q200.89 25 200.60 25L200.60 25ZM204.74 4.66L200.70 15.52L200.41 15.38L208.53 15.38L208.00 15.53L204.74 4.66Z"/></g>
          </svg>
        